<svg width="40" height="40" viewBox="0 0 40 40" fill="none" xmlns="http://www.w3.org/2000/svg">
<g clip-path="url(#clip0)">
<path d="M39.6341 23.95C39.4015 23.2456 38.7924 22.7551 38.0046 22.6374C37.6331 22.5819 37.2077 22.6056 36.7042 22.7093C35.8267 22.8904 35.1758 22.9593 34.7006 22.9726C36.4939 19.9449 37.9521 16.4922 38.7916 13.2421C40.149 7.98675 39.4237 5.5926 38.576 4.50968C36.3328 1.64331 33.0599 0.103463 29.1115 0.056347C27.0052 0.0305921 25.1561 0.446459 24.1915 0.745519C23.2935 0.58705 22.3278 0.498575 21.3146 0.482213C19.4152 0.451913 17.737 0.865961 16.3031 1.71693C15.5092 1.44848 14.2351 1.07003 12.7637 0.828541C9.30318 0.260417 6.51407 0.703099 4.47397 2.14432C2.00361 3.88929 0.858421 6.9211 1.07022 11.1555C1.13748 12.4999 1.88953 16.5904 3.07365 20.4697C3.75419 22.6995 4.47988 24.5511 5.23056 25.9737C6.29515 27.9909 7.43428 29.1788 8.71309 29.6054C9.42984 29.8442 10.7321 30.0115 12.1018 28.8707C12.2755 29.081 12.5071 29.2899 12.8145 29.4839C13.2049 29.7301 13.6823 29.9313 14.1591 30.0506C15.8772 30.4801 17.4866 30.3726 18.8597 29.7706C18.8681 30.0148 18.8747 30.2481 18.8801 30.4496C18.8892 30.7764 18.8983 31.0968 18.9103 31.3965C18.9916 33.4226 19.1295 34.9981 19.5379 36.1004C19.5603 36.161 19.5905 36.2534 19.6223 36.3514C19.8261 36.9753 20.1668 38.0197 21.0337 38.8377C21.9313 39.685 23.0171 39.9448 24.0116 39.9448C24.5103 39.9448 24.9862 39.8794 25.4035 39.79C26.8913 39.4711 28.581 38.9854 29.8033 37.245C30.9589 35.5997 31.5207 33.1216 31.6223 29.217C31.6355 29.1066 31.6476 29.0011 31.6593 28.9007L31.6835 28.6943L31.9558 28.7183L32.0259 28.723C33.5412 28.792 35.3941 28.4707 36.532 27.9421C37.4311 27.5249 40.3125 26.0037 39.6341 23.95Z" fill="black"/>
<path d="M37.0427 24.3494C32.537 25.2788 32.2272 23.7534 32.2272 23.7534C36.9843 16.6945 38.9731 7.73438 37.257 5.54141C32.5751 -0.440566 24.4706 2.38855 24.3353 2.46187L24.2918 2.46975C23.4016 2.28492 22.4055 2.17493 21.2857 2.1566C19.2472 2.12327 17.7006 2.69109 16.5271 3.581C16.5271 3.581 2.06948 -2.37507 2.74199 11.0718C2.88501 13.9324 6.84219 32.717 11.562 27.0432C13.2872 24.9684 14.9541 23.2142 14.9541 23.2142C15.7819 23.7642 16.773 24.0447 17.812 23.944L17.8927 23.8755C17.8676 24.1331 17.8791 24.385 17.925 24.6833C16.7091 26.0418 17.0665 26.2803 14.6358 26.7807C12.1762 27.2876 13.6211 28.1899 14.5644 28.426C15.7081 28.7118 18.3539 29.117 20.1416 26.6143L20.0704 26.8999C20.5467 27.2815 20.8812 29.3819 20.8252 31.2861C20.7691 33.1902 20.7317 34.4975 21.107 35.5186C21.4825 36.5397 21.8566 38.8372 25.052 38.1526C27.7219 37.5804 29.1056 36.0976 29.2981 33.6242C29.4346 31.8659 29.7438 32.1259 29.7632 30.5538L30.0112 29.8096C30.2971 27.4261 30.0567 26.657 31.7015 27.0147L32.1015 27.0499C33.312 27.1049 34.8967 26.8551 35.8267 26.4228C37.8292 25.4935 39.017 23.9417 37.0424 24.3494H37.0427Z" fill="#336791"/>
<path d="M17.3732 12.351C16.9671 12.2945 16.5995 12.3468 16.4134 12.4877C16.3089 12.5669 16.2765 12.6587 16.2677 12.7219C16.2443 12.8893 16.3616 13.0744 16.4337 13.1699C16.6376 13.4402 16.9355 13.6259 17.2303 13.6668C17.273 13.6729 17.3156 13.6756 17.3579 13.6756C17.8495 13.6756 18.2966 13.2927 18.3359 13.0102C18.3852 12.6563 17.8714 12.4204 17.3732 12.3512V12.351ZM30.8239 12.3622C30.7852 12.0849 30.2916 12.0058 29.8231 12.0709C29.3553 12.1361 28.9017 12.3473 28.9396 12.6252C28.9699 12.8414 29.3603 13.2105 29.8224 13.2105C29.8615 13.2105 29.9009 13.2079 29.9405 13.2023C30.249 13.1596 30.4753 12.9637 30.5829 12.8508C30.7465 12.6787 30.8414 12.4869 30.8239 12.3622Z" fill="white"/>
<path d="M38.5422 24.2439C38.3704 23.7244 37.8175 23.5573 36.8988 23.7469C34.171 24.3099 33.1941 23.92 32.8734 23.6838C34.9937 20.4538 36.7379 16.5493 37.6788 12.9065C38.1246 11.1809 38.3707 9.57831 38.3909 8.27208C38.4132 6.83843 38.1689 5.78489 37.6654 5.14132C35.635 2.54687 32.655 1.15519 29.0477 1.11701C26.5678 1.08913 24.4726 1.72377 24.0664 1.90224C23.211 1.68953 22.2786 1.55894 21.2634 1.54227C19.4017 1.51212 17.7925 1.95784 16.4602 2.86639C15.8815 2.65095 14.3859 2.13752 12.5568 1.84285C9.3947 1.33381 6.88192 1.71953 5.08877 2.98986C2.94913 4.50577 1.96135 7.21551 2.1527 11.0436C2.21708 12.3315 2.95095 16.2936 4.10902 20.0879C5.63341 25.082 7.29052 27.9091 9.03398 28.4907C9.23805 28.5587 9.47333 28.6063 9.73285 28.6063C10.3688 28.6063 11.1486 28.3197 11.9599 27.3443C12.9494 26.1572 13.973 24.999 15.0294 23.871C15.7148 24.2389 16.4678 24.4443 17.2379 24.4649C17.2394 24.4851 17.2413 24.5052 17.2432 24.5252C17.1106 24.6833 16.9808 24.8436 16.8538 25.0062C16.3202 25.6836 16.2092 25.8246 14.4916 26.1782C14.003 26.2791 12.7054 26.5465 12.6863 27.4561C12.6657 28.45 14.2203 28.8674 14.3974 28.9116C15.0146 29.0661 15.6092 29.1423 16.1763 29.1423C17.5554 29.1423 18.7691 28.689 19.739 27.812C19.7091 31.355 19.8568 34.8462 20.2822 35.9099C20.6307 36.7807 21.4818 38.9088 24.1703 38.9087C24.5648 38.9087 24.9991 38.8628 25.4767 38.7603C28.2827 38.1589 29.5012 36.9187 29.9725 34.1846C30.2247 32.7233 30.6576 29.2341 30.8612 27.3625C31.2908 27.4966 31.844 27.5579 32.4419 27.5578C33.6891 27.5578 35.1282 27.2928 36.0307 26.8739C37.0445 26.403 38.874 25.2477 38.5422 24.2439ZM31.8602 11.5966C31.8509 12.1491 31.7749 12.6507 31.6943 13.1743C31.6075 13.7375 31.5178 14.3197 31.4952 15.0264C31.4729 15.7142 31.5588 16.4293 31.6419 17.1209C31.8097 18.5177 31.982 19.9558 31.3152 21.3747C31.2045 21.1785 31.1058 20.9757 31.0198 20.7674C30.9369 20.5665 30.757 20.2438 30.5077 19.7972C29.5383 18.0586 27.2681 13.9871 28.4302 12.3258C28.7764 11.8313 29.6549 11.3228 31.8602 11.5966ZM29.1871 2.23584C32.4192 2.3072 34.9759 3.51632 36.7861 5.82943C38.1744 7.60365 36.6456 15.6767 32.2198 22.6413C32.1753 22.5847 32.1306 22.5283 32.0856 22.4721L32.0296 22.4021C33.1732 20.5133 32.9496 18.6446 32.7505 16.9877C32.6687 16.3078 32.5915 15.6656 32.6112 15.0623C32.6315 14.423 32.716 13.8746 32.7978 13.3443C32.8983 12.6909 33.0005 12.0147 32.9723 11.2177C32.9934 11.1341 33.0019 11.0353 32.9908 10.918C32.9189 10.1537 32.0462 7.86621 30.2676 5.7958C29.2947 4.66333 27.8759 3.39603 25.9387 2.54127C26.7719 2.36856 27.9113 2.20751 29.1871 2.23584ZM11.1013 26.6304C10.2075 27.7052 9.59029 27.4992 9.38728 27.4316C8.06468 26.9904 6.52999 24.1949 5.17694 19.762C4.00615 15.9263 3.32197 12.0693 3.26774 10.9877C3.09685 7.56714 3.926 5.18328 5.73234 3.90219C8.67205 1.81755 13.5052 3.06531 15.4473 3.69812C15.4194 3.7257 15.3903 3.75145 15.3627 3.77948C12.1758 6.99796 12.2514 12.4968 12.2593 12.833C12.259 12.9627 12.2699 13.1463 12.2847 13.3989C12.3396 14.3238 12.4417 16.0451 12.169 17.9945C11.9157 19.806 12.4741 21.579 13.7008 22.859C13.8267 22.9901 13.959 23.1149 14.0973 23.2329C13.5513 23.8177 12.3646 25.1109 11.1013 26.6304ZM14.5069 22.0865C13.5182 21.0548 13.0692 19.6198 13.2748 18.149C13.5626 16.0898 13.4564 14.2963 13.3993 13.3328C13.3913 13.198 13.3841 13.0798 13.3801 12.9866C13.8456 12.5738 16.0031 11.4178 17.5418 11.7704C18.2438 11.9311 18.6717 12.4092 18.8495 13.2316C19.77 17.4892 18.9713 19.2637 18.3296 20.6898C18.1973 20.9836 18.0723 21.2613 17.9657 21.5485L17.8829 21.7706C17.6736 22.3321 17.4787 22.8541 17.358 23.3499C16.3069 23.3468 15.2844 22.8978 14.5069 22.0863V22.0865ZM14.6683 27.8284C14.3613 27.7517 14.0853 27.6185 13.9233 27.5081C14.0586 27.4445 14.2994 27.3578 14.7169 27.2718C16.7375 26.8559 17.0495 26.5623 17.731 25.6971C17.8872 25.4986 18.0643 25.2738 18.3096 24.9998L18.3099 24.9995C18.6751 24.5905 18.8422 24.6599 19.1452 24.7856C19.3908 24.8871 19.63 25.195 19.727 25.5337C19.7729 25.6937 19.8244 25.9973 19.6558 26.2337C18.2323 28.2268 16.158 28.2012 14.6683 27.8284ZM25.2428 37.6686C22.7709 38.1983 21.8957 36.937 21.319 35.4952C20.9467 34.5644 20.7637 30.3669 20.8936 25.7314C20.8952 25.6698 20.8864 25.6102 20.8695 25.5542C20.8543 25.4435 20.8312 25.334 20.8004 25.2266C20.6074 24.5522 20.137 23.988 19.5726 23.7541C19.3484 23.6612 18.9369 23.4908 18.4424 23.6173C18.5479 23.1828 18.7307 22.692 18.9291 22.1607L19.0122 21.9373C19.1059 21.6853 19.2234 21.4243 19.3476 21.1479C20.0192 19.656 20.939 17.6124 19.9408 12.9957C19.5669 11.2665 18.3182 10.422 16.4254 10.6182C15.2906 10.7356 14.2524 11.1935 13.7346 11.456C13.6232 11.5124 13.5214 11.5669 13.4263 11.6199C13.5708 9.87768 14.1168 6.62163 16.1593 4.56152C17.4454 3.26468 19.1581 2.62414 21.2449 2.65868C25.3566 2.72594 27.9933 4.83604 29.4813 6.59451C30.7636 8.10967 31.4579 9.63603 31.735 10.4593C29.6512 10.2473 28.2339 10.6587 27.5155 11.6858C25.9524 13.9202 28.3705 18.2567 29.5327 20.3409C29.7458 20.7228 29.9298 21.053 29.9876 21.1933C30.3661 22.1104 30.856 22.7228 31.2137 23.1697C31.3234 23.3067 31.4298 23.4395 31.5107 23.5556C30.8795 23.7375 29.7458 24.158 29.8492 26.2594C29.7658 27.3139 29.1733 32.2507 28.8723 33.9949C28.4749 36.2992 27.627 37.1575 25.2428 37.6688V37.6686ZM35.5606 25.8613C34.9152 26.1608 33.8351 26.3855 32.8092 26.4338C31.676 26.4868 31.099 26.3068 30.9633 26.1961C30.8997 24.8865 31.387 24.7497 31.9029 24.6049C31.984 24.5822 32.063 24.5599 32.1394 24.5332C32.1868 24.5719 32.2388 24.6102 32.2957 24.6478C33.2066 25.2489 34.8311 25.3138 37.1247 24.8403L37.1498 24.8353C36.8404 25.1245 36.3111 25.5127 35.5606 25.8613Z" fill="white"/>
</g>
<defs>
<clipPath id="clip0">
<rect width="38.784" height="40" fill="white" transform="translate(1)"/>
</clipPath>
</defs>
</svg>
